<?xml version="1.0" encoding="utf-8"?>
<!-- Generator: Adobe Illustrator 22.1.0, SVG Export Plug-In . SVG Version: 6.00 Build 0)  -->
<svg version="1.1" id="Layer_1" xmlns="http://www.w3.org/2000/svg" xmlns:xlink="http://www.w3.org/1999/xlink" x="0px" y="0px"
	 viewBox="0 0 600 600" style="enable-background:new 0 0 600 600;" xml:space="preserve">
<style type="text/css">
	.st0{fill:#DFD3E2;}
</style>
<g>
	<g>
		<path class="st0" d="M105.7,156.2c-2.8,7.1-2.2,103.2,0,105.7c2.2,2.5,4.2,5.3,7.1,5.9c3,0.6,15.4-13.1,15.4-13.1
			S229,152.8,234,149c5-3.7,12.2-9.5,21.4-11.9c9.2-2.4,124.6-0.8,131.7,1.4c7.2,2.2,7.2,2.2,11.9,8.1c4.7,5.9,8.6,113.8,4.7,127
			s-5.3,20-9.5,28.5c-4.2,8.5-114.7,110.3-117.5,119.9c-2.8,9.6-3.3,14.2-0.6,14.2s91.7,0,98,0c6.2,0,12.8-2.3,17.8-7.1
			s86.7-83.4,91.4-87.9c4.7-4.5,9.6-22,11.9-29.7s0-191.2,0-191.2s-4.7-64.1-64.1-77.2s-197.1,0-197.1,0s-24.9,4-29.7,8.3
			C199.5,56,108.6,149,105.7,156.2z"/>
		<path class="st0" d="M279.1,204.8c-19,9.5-160.3,154.3-160.3,154.3s-13.1,21.4-13.1,33.2c0,11.9,0.5,173.6,0,182.8
			c0,0,1.6,4.7,8.3,4.7c6.7,0,78.4-76,78.4-76s4.7-7.1,5.9-23.7c1.2-16.6-1.2-52.2,3.6-68.9s116.5-128.2,127-140.1
			c10.5-11.9,16.4-45.3,2.9-61.1S298.1,195.4,279.1,204.8z"/>
	</g>
</g>
</svg>
