<?xml version="1.0" encoding="utf-8"?>
<!-- Generator: Adobe Illustrator 22.1.0, SVG Export Plug-In . SVG Version: 6.00 Build 0)  -->
<svg version="1.1" id="Layer_1" xmlns="http://www.w3.org/2000/svg" xmlns:xlink="http://www.w3.org/1999/xlink" x="0px" y="0px"
	 viewBox="0 0 300 300.1" style="enable-background:new 0 0 300 300.1;" xml:space="preserve">
<style type="text/css">
	.st0{fill:#DFD3E2;}
</style>
<g>
	<g>
		<path class="st0" d="M53.9,78.4c-1.4,3.6-1.1,51.6,0,52.8c1.1,1.2,2.1,2.7,3.6,3c1.5,0.3,7.7-6.5,7.7-6.5s50.4-51,52.8-52.8
			s6.1-4.7,10.7-5.9c4.6-1.2,62.3-0.4,65.9,0.7c3.6,1.1,3.6,1.1,6,4.1c2.4,3,4.3,56.9,2.4,63.5c-1.9,6.6-2.7,10-4.7,14.2
			c-2.1,4.2-57.4,55.1-58.8,60c-1.4,4.8-1.6,7.1-0.3,7.1s45.9,0,49,0c3.1,0,6.4-1.1,8.9-3.6c2.5-2.4,43.3-41.7,45.7-43.9
			c2.4-2.2,4.8-11,5.9-14.8s0-95.6,0-95.6s-2.4-32.1-32.1-38.6S118,22,118,22s-12.4,2-14.8,4.2S55.3,74.8,53.9,78.4z"/>
		<path class="st0" d="M140.6,102.7c-9.5,4.7-80.1,77.2-80.1,77.2s-6.5,10.7-6.5,16.6s0.3,86.8,0,91.4c0,0,0.8,2.4,4.2,2.4
			c3.3,0,39.2-38,39.2-38s2.4-3.6,3-11.9s-0.6-26.1,1.8-34.4c2.4-8.3,58.3-64.1,63.5-70c5.3-5.9,8.2-22.7,1.5-30.6
			C160.2,97.5,150.1,97.9,140.6,102.7z"/>
	</g>
</g>
</svg>
